<svg width="39" height="35" viewBox="0 0 39 35" fill="none" xmlns="http://www.w3.org/2000/svg">
<path d="M17.4563 35C15.0354 35 12.7604 34.5403 10.6312 33.621C8.50208 32.7028 6.65 31.4563 5.075 29.8813C3.5 28.3063 2.26042 26.4542 1.35625 24.325C0.452084 22.1958 0 19.9208 0 17.5C0 15.0792 0.459667 12.8042 1.379 10.675C2.29717 8.54583 3.54375 6.69375 5.11875 5.11875C6.69375 3.54375 8.54583 2.29658 10.675 1.37725C12.8042 0.459083 15.0792 0 17.5 0C18.9 0 20.293 0.175 21.679 0.525C23.0638 0.875 24.4125 1.38542 25.725 2.05625C26.1625 2.28958 26.4326 2.64658 26.5352 3.12725C26.6367 3.60908 26.5271 4.05417 26.2063 4.4625C25.9146 4.84167 25.5354 5.08958 25.0688 5.20625C24.6021 5.32292 24.1646 5.26458 23.7563 5.03125C22.7646 4.53542 21.7437 4.15625 20.6938 3.89375C19.6437 3.63125 18.5792 3.5 17.5 3.5C13.6208 3.5 10.318 4.86325 7.5915 7.58975C4.86383 10.3174 3.5 13.6208 3.5 17.5C3.5 21.3792 4.86383 24.6826 7.5915 27.4102C10.318 30.1367 13.6208 31.5 17.5 31.5C18.3458 31.5 19.1479 31.4341 19.9062 31.3022C20.6646 31.1716 21.3937 30.975 22.0938 30.7125C22.4729 30.5667 22.8451 30.5597 23.2102 30.6915C23.5742 30.8222 23.9021 31.0479 24.1938 31.3687C24.5729 31.8062 24.6826 32.2951 24.5228 32.8353C24.3618 33.3743 23.9896 33.7604 23.4062 33.9937C22.5021 34.3146 21.5542 34.5625 20.5625 34.7375C19.5708 34.9125 18.5354 35 17.4563 35ZM13.825 24.325L8.79375 19.2937C8.47292 18.9729 8.32008 18.5716 8.33525 18.0898C8.34925 17.6091 8.51667 17.2083 8.8375 16.8875C9.15833 16.5667 9.56667 16.4062 10.0625 16.4062C10.5583 16.4062 10.9667 16.5667 11.2875 16.8875L15.05 20.65L31.3687 4.2875C31.6896 3.96667 32.0909 3.81325 32.5728 3.82725C33.0534 3.84242 33.4542 4.01042 33.775 4.33125C34.0958 4.65208 34.2563 5.06042 34.2563 5.55625C34.2563 6.05208 34.0958 6.46042 33.775 6.78125L16.275 24.325C15.9542 24.6458 15.5458 24.8062 15.05 24.8062C14.5542 24.8062 14.1458 24.6458 13.825 24.325ZM31.5 31.5C31.0042 31.5 30.5888 31.332 30.254 30.996C29.918 30.6612 29.75 30.2458 29.75 29.75V26.25H26.25C25.7542 26.25 25.3388 26.082 25.004 25.746C24.668 25.4112 24.5 24.9958 24.5 24.5C24.5 24.0042 24.668 23.5882 25.004 23.2522C25.3388 22.9174 25.7542 22.75 26.25 22.75H29.75V19.25C29.75 18.7542 29.918 18.3382 30.254 18.0022C30.5888 17.6674 31.0042 17.5 31.5 17.5C31.9958 17.5 32.4112 17.6674 32.746 18.0022C33.082 18.3382 33.25 18.7542 33.25 19.25V22.75H36.75C37.2458 22.75 37.6612 22.9174 37.996 23.2522C38.332 23.5882 38.5 24.0042 38.5 24.5C38.5 24.9958 38.332 25.4112 37.996 25.746C37.6612 26.082 37.2458 26.25 36.75 26.25H33.25V29.75C33.25 30.2458 33.082 30.6612 32.746 30.996C32.4112 31.332 31.9958 31.5 31.5 31.5Z" fill="#5F33E1"/>
</svg>